<svg clip-rule="evenodd" fill-rule="evenodd" stroke-linejoin="round" stroke-miterlimit="2" viewBox="0 0 272 123" xmlns="http://www.w3.org/2000/svg"><g fill-rule="nonzero"><path d="m180.854 25.683h-16.458l-19.178 55.854h12.816l3.665-11.219h21.852l3.665 11.219h12.817zm-15.477 34.345 2.071-6.983 5.177-16.23 5.178 16.23 2.07 6.983z"/><path d="m58.227 68.83c-.948 4.795-2.769 8.189-5.467 10.182-2.698 1.994-6.106 2.99-10.224 2.99-2.935 0-5.443-.492-7.526-1.476-2.083-.985-3.81-2.334-5.183-4.05-1.373-1.715-2.378-3.759-3.017-6.132-.639-2.371-.959-4.945-.959-7.721 0-3.28.391-6.143 1.172-8.592.781-2.447 1.905-4.466 3.372-6.056 1.467-1.589 3.206-2.775 5.219-3.558 2.011-.781 4.271-1.173 6.78-1.173 2.366 0 4.508.405 6.425 1.211 1.917.808 3.561 2.006 4.935 3.596 1.372 1.59 2.437 3.584 3.195 5.98.756 2.398 1.135 5.211 1.135 8.441v1.362h-26.482c.047 1.767.296 3.444.746 5.034.449 1.59 1.123 2.99 2.023 4.201.899 1.211 2.024 2.171 3.373 2.877 1.349.707 2.946 1.06 4.792 1.06 2.556 0 4.638-.631 6.248-1.893 1.608-1.26 2.815-3.355 3.621-6.283zm-26.625-9.689h20.59c-.096-1.463-.379-2.864-.852-4.201-.474-1.337-1.125-2.499-1.952-3.483-.829-.983-1.835-1.766-3.018-2.346-1.184-.58-2.509-.871-3.976-.871-1.468 0-2.84.291-4.118.871s-2.403 1.363-3.372 2.346c-.971.984-1.74 2.133-2.308 3.445-.568 1.313-.899 2.725-.994 4.239z"/><path d="m133.974 25.605v.049l-7.937.029-9.265 37.485-9.264-37.485-7.86-.029v-.001h-.245l-12.785-.048-.073 55.932h13.103v-42.328l11.615 42.328h11.018l11.693-42.612v37.511l-.073 5.101h13.099v-55.932z"/><path d="m17.504 76.745c-3.777 0-5.089-2.631-5.089-7.271v-20.193h9.719v-5.185h-9.719v-10.755h-6.632v10.762h-5.783v5.185h5.787v20.422c0 4.407.694 7.732 2.62 9.744 1.62 1.857 4.166 2.864 7.326 2.864 2.332 0 4.235-.308 5.551-.757v-5.238c-.85.216-2.107.422-3.78.422z"/><path d="m250.048 25.683h-16.141l-10.72 15.933-10.721-15.933h-16.141l18.791 27.927-18.791 27.927h16.141l10.721-15.933 10.72 15.933h16.141l-18.791-27.927z"/><path d="m104.716 11.771s205.322-32.571 151.141 52.735c.005 0 87.671-97.539-151.141-52.735z"/><path d="m76.204 76.74c-3.796 0-5.115-2.646-5.115-7.31v-43.825h-6.666v18.322l.003 5.213v20.527c0 4.431.698 7.773 2.634 9.796 1.628 1.867 4.188 2.878 7.364 2.878 2.343 0 4.256-.309 5.578-.76v-5.265c-.854.216-2.116.424-3.798.424z"/><path d="m242.067 116.488 1.32-2.136c.84.792 2.568 1.584 4.008 1.584 1.32 0 1.944-.456 1.944-1.176 0-.816-1.008-1.104-2.328-1.368-1.992-.384-4.56-.864-4.56-3.624 0-1.944 1.704-3.648 4.752-3.648 1.968 0 3.528.672 4.656 1.584l-1.2 2.088c-.696-.744-2.016-1.344-3.432-1.344-1.104 0-1.824.408-1.824 1.08 0 .72.912.984 2.208 1.248 1.992.384 4.656.912 4.656 3.792 0 2.136-1.8 3.72-5.016 3.72-2.016 0-3.96-.672-5.184-1.8z"/><path d="m230.869 116.488 1.32-2.136c.84.792 2.568 1.584 4.008 1.584 1.32 0 1.944-.456 1.944-1.176 0-.816-1.008-1.104-2.328-1.368-1.992-.384-4.56-.864-4.56-3.624 0-1.944 1.704-3.648 4.752-3.648 1.968 0 3.528.672 4.656 1.584l-1.2 2.088c-.696-.744-2.016-1.344-3.432-1.344-1.104 0-1.824.408-1.824 1.08 0 .72.912.984 2.208 1.248 1.992.384 4.656.912 4.656 3.792 0 2.136-1.8 3.72-5.016 3.72-2.016 0-3.96-.672-5.184-1.8z"/><path d="m218.107 112.192c0-3.36 2.472-6.072 6-6.072 3.456 0 5.808 2.592 5.808 6.384v.672h-8.616c.192 1.464 1.368 2.688 3.336 2.688 1.08 0 2.352-.432 3.096-1.152l1.344 1.968c-1.176 1.08-2.976 1.608-4.776 1.608-3.528 0-6.192-2.376-6.192-6.096zm6-3.648c-1.896 0-2.712 1.416-2.856 2.568h5.712c-.072-1.104-.84-2.568-2.856-2.568z"/><path d="m213.017 118v-7.008c0-1.608-.84-2.16-2.136-2.16-1.2 0-2.136.672-2.64 1.368v7.8h-3.048v-11.592h3.048v1.512c.744-.888 2.16-1.8 4.056-1.8 2.544 0 3.768 1.44 3.768 3.696v8.184z"/><path d="m200.875 104.704c-.984 0-1.824-.816-1.824-1.824s.84-1.824 1.824-1.824c1.008 0 1.824.816 1.824 1.824s-.816 1.824-1.824 1.824zm-1.512 13.296v-11.592h3.048v11.592z"/><path d="m187.157 116.488 1.32-2.136c.84.792 2.568 1.584 4.008 1.584 1.32 0 1.944-.456 1.944-1.176 0-.816-1.008-1.104-2.328-1.368-1.992-.384-4.56-.864-4.56-3.624 0-1.944 1.704-3.648 4.752-3.648 1.968 0 3.528.672 4.656 1.584l-1.2 2.088c-.696-.744-2.016-1.344-3.432-1.344-1.104 0-1.824.408-1.824 1.08 0 .72.912.984 2.208 1.248 1.992.384 4.656.912 4.656 3.792 0 2.136-1.8 3.72-5.016 3.72-2.016 0-3.96-.672-5.184-1.8z"/><path d="m182.331 118v-1.464c-.792.888-2.184 1.752-4.08 1.752-2.544 0-3.744-1.392-3.744-3.648v-8.232h3.048v7.032c0 1.608.84 2.136 2.136 2.136 1.176 0 2.112-.648 2.64-1.32v-7.848h3.048v11.592z"/><path d="m160.684 118v-16.008h3.048v5.904c.912-1.176 2.208-1.776 3.576-1.776 2.952 0 5.136 2.304 5.136 6.096 0 3.864-2.208 6.072-5.136 6.072-1.392 0-2.664-.624-3.576-1.752v1.464zm3.048-3.72c.504.744 1.632 1.296 2.616 1.296 1.776 0 2.952-1.344 2.952-3.36s-1.176-3.384-2.952-3.384c-.984 0-2.112.576-2.616 1.344z"/><path d="m147.448 109.816c.144-1.224-.528-1.656-1.44-1.248l.096-.72c.84-.672 1.656-.84 2.184-.84 1.08 0 1.896.72 1.896 2.064 0 .6.144.6.432.12.48-.816 1.608-2.28 3.168-2.28.96 0 1.608.528 1.608 1.344 0 .744-.6 1.416-1.872 1.896h-.024c0-.72-.288-1.32-1.08-1.32-1.416 0-2.472 1.872-2.832 4.92l-.504 4.248h-2.64z"/><path d="m138.856 118.144c-2.76 0-4.8-1.824-4.8-4.8 0-3.192 2.352-6.432 5.952-6.432 2.76 0 4.824 1.824 4.824 4.8 0 3.192-2.376 6.432-5.976 6.432zm-1.872-5.376c0 2.424.72 4.512 2.352 4.512 1.944 0 2.544-2.76 2.544-4.992 0-2.424-.72-4.512-2.352-4.512-1.944 0-2.544 2.76-2.544 4.992z"/><path d="m124.723 122.8c-1.632 0-2.76-.648-2.76-1.824 0-.72.432-1.248 1.296-1.248 1.8 0 .72 2.256 2.04 2.256 1.152 0 1.392-1.776 1.632-3.624l1.152-9.216c.096-.696-.072-.84-.504-.84h-1.176l.096-.672c1.152-.192 1.8-.384 1.896-1.176.384-3.144 2.328-4.824 4.992-4.824 1.488 0 2.664.528 2.664 1.8 0 .744-.408 1.344-1.344 1.344-1.824 0-1.008-2.328-2.28-2.328-.768 0-1.008.792-1.2 2.496l-.168 1.584c-.072.624.144.768 1.224.768h1.536l-.12 1.056-1.536-.048c-1.056-.024-1.32.144-1.416.888l-1.128 9.12c-.36 2.976-2.4 4.488-4.896 4.488z"/><path d="m116.934 118.12c-1.824 0-2.88-1.056-2.616-3.24l.72-5.856c.096-.744-.12-.888-.552-.888h-1.032l.096-.672c1.632-.48 2.616-1.272 3.408-2.616.144-.24.288-.312.504-.312h.312c.264 0 .384.168.36.432l-.192 1.56c-.072.504.12.648 1.176.648h1.56l-.12 1.104-1.536-.096c-1.08-.072-1.272.144-1.368.888l-.648 5.616c-.168 1.368-.048 2.256.912 2.256.36 0 .912-.12 1.344-.432l.288.552c-.576.624-1.464 1.056-2.616 1.056z"/><path d="m109.949 118.144c-1.2 0-1.92-.768-1.728-2.256l1.344-10.464c.192-1.584-.216-1.968-1.392-1.968l.096-.744c1.704 0 3.048-.144 4.368-.48l-1.704 13.344c-.12.984.576 1.416 1.368 1.008l-.12.72c-.72.672-1.68.84-2.232.84z"/><path d="m104.191 118.144c-1.08 0-1.992-.768-1.776-2.256l.864-6.072c.168-1.224-.528-1.656-1.44-1.248l.096-.72c.816-.672 1.632-.84 2.184-.84 1.176 0 2.064.792 1.848 2.256l-.888 6.312c-.144.984.576 1.416 1.368 1.008l-.12.72c-.72.672-1.656.84-2.136.84zm-.912-14.52c0-.96.768-1.68 1.704-1.68.912 0 1.68.72 1.68 1.68s-.768 1.68-1.68 1.68c-.936 0-1.704-.72-1.704-1.68z"/><path d="m92.037 118.144c-1.512 0-3-.912-2.568-4.296l.504-4.032c.144-1.224-.552-1.656-1.464-1.248l.096-.72c.84-.672 1.752-.84 2.256-.84 1.056 0 2.04.792 1.8 2.496l-.48 3.528c-.288 2.184.024 3.216 1.344 3.216 1.8 0 3.048-1.752 3.384-4.872l.168-1.56c.12-1.224-.552-1.656-1.464-1.248l.096-.72c.84-.672 1.752-.84 2.256-.84 1.056 0 2.016.792 1.776 2.736l-.744 5.832c-.12.984.576 1.416 1.368 1.008l-.12.72c-.72.672-1.656.84-2.136.84-1.08 0-1.992-.792-1.8-2.16.216-1.512-1.176 2.16-4.272 2.16z"/><path d="m80.708 118.144c-2.256 0-4.512-1.056-4.176-3.648l1.152-9.072c.192-1.584-.216-1.968-1.392-1.968l.096-.744c1.704 0 3.024-.144 4.344-.48l-.552 4.296c-.288 2.88 1.608.384 3.648.384 1.608 0 3.552 1.584 3.552 4.512 0 3.408-2.592 6.72-6.672 6.72zm-1.44-4.416c-.312 2.328.528 3.552 1.872 3.552 1.944 0 3.312-2.592 3.312-5.256 0-2.112-.864-3.696-2.232-3.696-1.008 0-2.352.888-2.76 3.936z"/><path d="m58.594 112.192c0-3.36 2.472-6.072 6-6.072 3.456 0 5.808 2.592 5.808 6.384v.672h-8.616c.192 1.464 1.368 2.688 3.336 2.688 1.08 0 2.352-.432 3.096-1.152l1.344 1.968c-1.176 1.08-2.976 1.608-4.776 1.608-3.528 0-6.192-2.376-6.192-6.096zm6-3.648c-1.896 0-2.712 1.416-2.856 2.568h5.712c-.072-1.104-.84-2.568-2.856-2.568z"/><path d="m50.929 118v-11.592h3.048v1.584c.816-1.032 2.256-1.848 3.696-1.848v2.976c-.216-.048-.504-.072-.84-.072-1.008 0-2.352.552-2.856 1.296v7.656z"/><path d="m37.107 118v-16.008h3.048v5.904c.912-1.176 2.208-1.776 3.576-1.776 2.952 0 5.136 2.304 5.136 6.096 0 3.864-2.208 6.072-5.136 6.072-1.392 0-2.664-.624-3.576-1.752v1.464zm3.048-3.72c.504.744 1.632 1.296 2.616 1.296 1.776 0 2.952-1.344 2.952-3.36s-1.176-3.384-2.952-3.384c-.984 0-2.112.576-2.616 1.344z"/><path d="m32.788 104.704c-.984 0-1.824-.816-1.824-1.824s.84-1.824 1.824-1.824c1.008 0 1.824.816 1.824 1.824s-.816 1.824-1.824 1.824zm-1.512 13.296v-11.592h3.048v11.592z"/><path d="m17.877 118v-16.008h11.328v2.928h-7.92v3.48h7.752v2.928h-7.752v6.672z"/></g></svg>