<svg height="54" viewBox="0 0 176 54" width="176" xmlns="http://www.w3.org/2000/svg"><path d="m37.7354 44.9139c-.6146 3.105-1.7935 5.303-3.5426 6.5939s-3.9577 1.9374-6.6258 1.9374c-1.9022 0-3.5285-.3192-4.8766-.9556-1.3501-.6384-2.4705-1.5111-3.3592-2.6222-.8907-1.1111-1.5416-2.4343-1.9547-3.9717-.4131-1.5354-.6206-3.204-.6206-5.002 0-2.1253.2539-3.9798.7597-5.5657.5058-1.5858 1.2352-2.8929 2.1864-3.9232.9511-1.0303 2.0776-1.798 3.3814-2.305 1.3038-.5071 2.7688-.7596 4.395-.7596 1.5335 0 2.9219.2626 4.1632.7838 1.2414.5232 2.3074 1.299 3.1981 2.3293.8886 1.0303 1.5798 2.3212 2.0695 3.8727.4897 1.5536.7355 3.3758.7355 5.4667v.8828h-17.1629c.0303 1.1455.1915 2.2303.4837 3.2606s.7274 1.9374 1.3118 2.7212c.5824.7838 1.3119 1.4061 2.1864 1.8626.8746.4586 1.9104.6869 3.1054.6869 1.6564 0 3.0065-.4081 4.0484-1.2263 1.0418-.8161 1.8257-2.1737 2.3476-4.0686h3.7723zm-17.2556-6.2748h13.3442c-.0624-.9474-.2458-1.8545-.5521-2.7212-.3063-.8666-.7295-1.6181-1.2655-2.2545-.5381-.6364-1.1889-1.1434-1.9567-1.5192-.7678-.3757-1.6262-.5636-2.5774-.5636-.9511 0-1.8398.1879-2.668.5636-.8282.3758-1.5577.8828-2.1864 1.5192s-1.1265 1.3818-1.4952 2.2303c-.3688.8505-.5824 1.7656-.6449 2.7454z"/><path d="m86.8247 16.9182v.0303l-5.1426.0182-6.0051 24.2808-6.0031-24.2808-5.0942-.0182h-.1592l-8.2842-.0303-.0484 36.2262h.0484 8.4413.0021v-27.4161l7.5285 27.4161h7.1396l7.5769-27.5999v24.2969l-.0463 3.303h.0463 8.4434v-36.2262z"/><path d="m117.206 16.9665h-10.666l-12.4296 36.1778h8.3066l2.376-7.2667h14.162l2.376 7.2667h8.306l-12.429-36.1778zm-10.03 22.2465 1.343-4.5233 3.355-10.511 3.355 10.511 1.342 4.5233z"/><path d="m11.3432 50.0414c-2.4484 0-3.29879-1.7051-3.29879-4.7091v-13.0788h6.29729v-3.3595h-6.29729v-6.9657h-4.29828v6.9697h-3.74613v3.3596h3.75016v13.2262c0 2.8546.44938 5.0081 1.69876 6.3111 1.04988 1.2041 2.70028 1.8546 4.74768 1.8546 1.5113 0 2.7446-.2 3.597-.4909v-3.392c-.5501.1394-1.3643.2728-2.4504.2728z"/><path d="m162.049 16.9665h-10.46l-6.948 10.3212-6.949-10.3212h-10.458l12.177 18.0889-12.177 18.0889h10.458l6.949-10.3192 6.948 10.3192h10.46l-12.177-18.0889z"/><path d="m67.8645 7.95645s133.0635-21.09695 97.9515 34.15755c.002 0 56.817-63.1777-97.9515-34.15755z"/><path d="m49.3868 50.0374c-2.4605 0-3.3149-1.7131-3.3149-4.7333v-28.3878h-4.3204v15.2444l.002 13.2969c0 2.8707.4534 5.0343 1.7068 6.3455 1.0559 1.2101 2.7144 1.8646 4.7718 1.8646 1.5194 0 2.7587-.2 3.6152-.4929v-3.4101c-.5542.1394-1.3723.2747-2.4605.2747z"/></svg>