<svg clip-rule="evenodd" fill-rule="evenodd" stroke-linejoin="round" stroke-miterlimit="2" viewBox="0 0 500 227" xmlns="http://www.w3.org/2000/svg"><g fill-rule="nonzero"><path d="m332.97 47.29h-30.29l-35.31 102.83h23.58l6.76-20.66h40.23l6.76 20.66h23.58zm-28.49 63.23 3.81-12.86 9.54-29.88 9.52 29.88 3.81 12.86z"/><path d="m107.21 126.72c-1.75 8.83-5.1 15.08-10.07 18.75s-11.25 5.5-18.82 5.5c-5.41 0-10.03-.91-13.86-2.72s-7.01-4.3-9.54-7.46c-2.54-3.16-4.38-6.92-5.56-11.29s-1.77-9.1-1.77-14.22c0-6.04.72-11.31 2.15-15.82 1.44-4.51 3.52-8.22 6.22-11.15 2.69-2.93 5.89-5.11 9.59-6.55 3.72-1.44 7.86-2.16 12.48-2.16 4.36 0 8.3.75 11.84 2.23 3.54 1.49 6.55 3.69 9.08 6.62 2.54 2.93 4.49 6.6 5.89 11.01 1.4 4.42 2.08 9.59 2.08 15.54v2.51h-48.75c.09 3.25.55 6.34 1.38 9.27s2.06 5.5 3.72 7.73 3.72 4 6.2 5.3c2.49 1.3 5.43 1.95 8.84 1.95 4.69 0 8.52-1.16 11.49-3.49 2.96-2.32 5.19-6.18 6.68-11.57h10.72zm-49.03-17.83h37.91c-.17-2.69-.7-5.27-1.56-7.73-.87-2.46-2.06-4.6-3.59-6.41s-3.39-3.25-5.56-4.32-4.62-1.6-7.33-1.6-5.23.54-7.57 1.6c-2.36 1.07-4.44 2.51-6.22 4.32-1.79 1.81-3.2 3.93-4.23 6.34-1.05 2.42-1.66 5.02-1.84 7.8z"/><path d="m246.65 47.14v.09l-14.6.06-17.07 69.01-17.05-69.01-14.47-.05h-.46l-23.53-.09-.15 102.98h24.14v-77.93l21.38 77.93h20.29l21.52-78.45v69.06l-.13 9.39h24.12v-102.99z"/><path d="m32.22 141.3c-6.94 0-9.35-4.84-9.35-13.39v-37.18h17.88v-9.55h-17.88v-19.8h-12.23v19.81h-10.64v9.55h10.66v37.6c0 8.12 1.27 14.24 4.82 17.94 2.98 3.42 7.66 5.27 13.48 5.27 4.29 0 7.81-.57 10.22-1.39v-9.64c-1.56.4-3.87.78-6.96.78z"/><path d="m460.37 47.29h-29.72l-19.74 29.33-19.74-29.33h-29.72l34.59 51.42-34.59 51.42h29.72l19.74-29.33 19.74 29.33h29.72l-34.59-51.42z"/><path d="m192.8 21.67s378.02-59.97 278.27 97.09c0 0 161.41-179.58-278.27-97.09z"/><path d="m140.29 141.29c-6.98 0-9.41-4.87-9.41-13.46v-80.69h-12.28v33.73l.02 9.6v37.79c0 8.16 1.27 14.31 4.84 18.04 3 3.44 7.71 5.3 13.55 5.3 4.33 0 7.84-.57 10.27-1.4v-9.69c-1.56.4-3.88.78-7 .78z"/><path d="m162.52 217.25v-29.47h20.86v5.39h-14.58v6.41h14.27v5.39h-14.27v12.28zm27.45-24.48c-1.8 0-3.35-1.5-3.35-3.36s1.55-3.36 3.35-3.36 3.35 1.5 3.35 3.36-1.49 3.36-3.35 3.36zm-2.78 24.48v-21.34h5.62v21.34zm10.73 0v-29.47h5.62v10.87c1.68-2.17 4.05-3.27 6.57-3.27 5.43 0 9.46 4.24 9.46 11.22s-4.07 11.18-9.46 11.18c-2.56 0-4.9-1.15-6.57-3.23v2.7zm5.62-6.85c.92 1.37 3 2.39 4.81 2.39 3.28 0 5.43-2.47 5.43-6.19s-2.15-6.23-5.43-6.23c-1.8 0-3.88 1.06-4.81 2.47zm19.82 6.85v-21.34h5.62v2.92c1.49-1.9 4.14-3.4 6.79-3.4v5.48c-.39-.09-.92-.13-1.55-.13-1.84 0-4.33 1.02-5.25 2.39v14.1h-5.62zm14.11-10.69c0-6.19 4.57-11.18 11.05-11.18s10.7 4.77 10.7 11.75v1.24h-15.85c.35 2.7 2.5 4.95 6.13 4.95 1.99 0 4.33-.8 5.71-2.12l2.47 3.62c-2.15 1.99-5.47 2.96-8.78 2.96-6.5 0-11.42-4.37-11.42-11.22zm11.04-6.72c-3.48 0-4.99 2.61-5.25 4.73h10.51c-.13-2.03-1.55-4.73-5.27-4.73zm29.68 17.68c-4.16 0-8.3-1.94-7.7-6.72l2.12-16.7c.37-2.92-.39-3.62-2.56-3.62l.18-1.37c3.13 0 5.56-.27 7.99-.88l-1.01 7.91c-.53 5.3 2.96.71 6.72.71 2.96 0 6.54 2.92 6.54 8.31 0 6.27-4.77 12.37-12.28 12.37zm-2.65-8.13c-.57 4.29.98 6.54 3.44 6.54 3.57 0 6.09-4.77 6.09-9.68 0-3.89-1.58-6.8-4.11-6.8-1.86 0-4.33 1.63-5.08 7.25l-.35 2.7zm23.51 8.13c-2.78 0-5.52-1.68-4.73-7.91l.92-7.42c.28-2.25-1.01-3.05-2.69-2.3l.18-1.33c1.55-1.24 3.22-1.55 4.14-1.55 1.95 0 3.76 1.46 3.31 4.6l-.88 6.5c-.53 4.02.06 5.92 2.49 5.92 3.31 0 5.6-3.23 6.22-8.97l.31-2.87c.22-2.25-1.01-3.05-2.71-2.3l.18-1.33c1.55-1.24 3.22-1.55 4.16-1.55 1.93 0 3.7 1.46 3.26 5.04l-1.36 10.74c-.22 1.81 1.05 2.61 2.52 1.86l-.22 1.33c-1.33 1.24-3.06 1.55-3.94 1.55-1.99 0-3.66-1.46-3.31-3.98.41-2.78-2.17 3.98-7.86 3.98zm22.37 0c-1.99 0-3.66-1.41-3.26-4.15l1.58-11.18c.31-2.25-.98-3.05-2.65-2.3l.18-1.33c1.49-1.24 3-1.55 4.01-1.55 2.17 0 3.79 1.46 3.41 4.15l-1.64 11.62c-.26 1.81 1.07 2.61 2.52 1.86l-.22 1.33c-1.33 1.24-3.06 1.55-3.94 1.55zm-1.67-26.74c0-1.77 1.42-3.09 3.13-3.09s3.09 1.33 3.09 3.09-1.4 3.09-3.09 3.09-3.13-1.33-3.13-3.09zm12.28 26.74c-2.21 0-3.53-1.41-3.19-4.15l2.49-19.27c.35-2.92-.4-3.62-2.58-3.62l.18-1.37c3.13 0 5.62-.27 8.05-.88l-3.15 24.57c-.22 1.81 1.07 2.61 2.52 1.86l-.22 1.33c-1.33 1.24-3.09 1.55-4.11 1.55zm12.85-.05c-3.35 0-5.3-1.94-4.81-5.97l1.33-10.78c.17-1.37-.22-1.63-1.01-1.63h-1.91l.18-1.24c3-.88 4.82-2.34 6.28-4.82.26-.44.53-.57.92-.57h.57c.5 0 .72.31.66.8l-.35 2.87c-.13.93.22 1.19 2.17 1.19h2.87l-.22 2.03-2.84-.18c-1.99-.13-2.34.27-2.52 1.63l-1.18 10.34c-.31 2.52-.09 4.15 1.68 4.15.66 0 1.68-.22 2.47-.8l.53 1.02c-1.07 1.15-2.69 1.94-4.82 1.94zm14.34 8.62c-3 0-5.08-1.19-5.08-3.36 0-1.33.81-2.3 2.39-2.3 3.31 0 1.33 4.15 3.76 4.15 2.12 0 2.56-3.27 3-6.67l2.12-16.97c.18-1.28-.13-1.55-.92-1.55h-2.17l.18-1.24c2.12-.35 3.31-.71 3.5-2.17.7-5.79 4.27-8.88 9.19-8.88 2.74 0 4.9.97 4.9 3.31 0 1.37-.75 2.47-2.47 2.47-3.37 0-1.86-4.29-4.2-4.29-1.42 0-1.86 1.46-2.21 4.6l-.31 2.92c-.13 1.15.26 1.41 2.25 1.41h2.84l-.22 1.94-2.84-.09c-1.93-.04-2.43.27-2.6 1.63l-2.08 16.79c-.66 5.48-4.42 8.26-9.02 8.26zm26.03-8.57c-5.08 0-8.84-3.36-8.84-8.84 0-5.88 4.33-11.84 10.95-11.84 5.08 0 8.87 3.36 8.87 8.84 0 5.88-4.36 11.84-10.99 11.84zm-3.44-9.9c0 4.46 1.33 8.31 4.33 8.31 3.57 0 4.68-5.08 4.68-9.19 0-4.46-1.33-8.31-4.33-8.31-3.57 0-4.68 5.08-4.68 9.19zm19.26-5.44c.26-2.25-.98-3.05-2.65-2.3l.18-1.33c1.55-1.24 3.04-1.55 4.01-1.55 1.99 0 3.5 1.33 3.5 3.8 0 1.1.26 1.1.79.22.88-1.5 2.96-4.2 5.84-4.2 1.77 0 2.95.97 2.95 2.47 0 1.37-1.1 2.61-3.44 3.49h-.04c0-1.33-.53-2.43-1.99-2.43-2.61 0-4.55 3.45-5.21 9.06l-.94 7.82h-4.86l1.86-15.07zm45.14 15.07-1.86-5.08h-13.16l-1.86 5.08h-6.9l11.42-29.47h7.86l11.36 29.47zm-8.45-24.04-4.9 13.52h9.76zm17.57 24.04v-29.47h6.28v29.47z"/></g></svg>