<svg fill="none" height="48" viewBox="0 0 48 48" width="48" xmlns="http://www.w3.org/2000/svg"><g fill="#000"><path d="m30.71 24.29-6.71-6.7-6.71 6.7 1.42 1.42 4.29-4.3v22.59h2v-22.59l4.29 4.3z"/><path d="m37.97 16.05c-.49-6.73-6.12-12.05-12.97-12.05-5.25 0-9.98 3.19-11.99 8h-.01c-6.07 0-11 4.93-11 11s4.93 11 11 11h5v-2h-5c-4.96 0-9-4.04-9-9s4.04-9 9-9h1.4l.24-.67c1.55-4.38 5.72-7.33 10.36-7.33 6.07 0 11 4.93 11 11v1h1c3.86 0 7 3.14 7 7s-3.14 7-7 7h-7v2h7c4.96 0 9-4.04 9-9 0-4.64-3.52-8.47-8.03-8.95z"/></g></svg>