<svg fill="none" height="48" viewBox="0 0 48 48" width="48" xmlns="http://www.w3.org/2000/svg"><g fill="#000"><path d="m24 16c-4.41 0-8 3.59-8 8s3.59 8 8 8 8-3.59 8-8-3.59-8-8-8zm0 14c-3.31 0-6-2.69-6-6s2.69-6 6-6 6 2.69 6 6-2.69 6-6 6z"/><path d="m41.96 20c-1.61 0-3.02-1.11-3.37-2.74-.25-1.17.2-2.39 1.05-3.24l1.33-1.33-5.66-5.66-1.34 1.34c-.85.85-2.06 1.29-3.24 1.04-1.63-.35-2.73-1.76-2.73-3.37v-2.04h-8v1.9c0 1.2-.55 2.37-1.56 3.02-1.41.9-3.18.69-4.31-.45l-1.44-1.44-5.66 5.66 1.34 1.34c.85.85 1.29 2.06 1.04 3.23-.35 1.63-1.76 2.74-3.37 2.74h-2.04v8h2.07c1.23 0 2.68.9 3.12 2.05.53 1.37.2 2.9-.84 3.94l-1.32 1.32 5.66 5.66 1.33-1.33c.85-.85 2.06-1.3 3.24-1.05 1.64.35 2.74 1.76 2.74 3.37v2.04h8v-1.87c0-1.2.54-2.38 1.54-3.04 1.4-.92 3.19-.71 4.33.44l1.44 1.44 5.66-5.66-1.3-1.3c-.87-.87-1.34-2.12-1.07-3.32.37-1.61 1.77-2.7 3.36-2.7h2.04v-8h-2.04zm0 6c-3.35 0-6.16 3.03-5.31 7.02.15.7.52 1.33 1.03 1.83l.46.46-2.83 2.83-.03-.03c-.98-.98-2.29-1.61-3.67-1.62-3.27 0-5.61 2.53-5.61 5.47l-4 .04v-.04c0-1.39-.48-2.76-1.46-3.75-2.31-2.31-5.75-2.18-7.83-.1l-.03.03-2.83-2.83c1.68-1.76 2.07-4.38.92-6.58-.88-1.72-2.74-2.73-4.68-2.73h-.09v-4h.04c1.38 0 2.76-.48 3.74-1.45 2.32-2.31 2.19-5.75.11-7.83l-.03-.03 2.83-2.83.03.03c.95.97 2.24 1.59 3.6 1.61 3.3.05 5.68-2.49 5.68-5.46l4-.04v.04c0 1.39.48 2.77 1.47 3.76 2.31 2.3 5.74 2.17 7.82.09l.03-.03 2.83 2.83-.03.03c-.98.98-1.61 2.28-1.62 3.66-.01 3.27 2.51 5.62 5.46 5.62l.04 4z"/></g></svg>