<svg fill="none" height="25" viewBox="0 0 25 25" width="25" xmlns="http://www.w3.org/2000/svg"><g fill="#000"><path d="m22.3101 9.6001h-6.635l-2.2-7h-1.33l-2.20004 7h-6.635v1.255l5.075 3.665-2.66 6.7 1.04 1.04 6.04504-4.52 6.035 4.51 1.105-1.015-2.71-6.715 5.07-3.665zm-6.295 4.565 2.73 6.76-5.935-4.435-5.87504 4.395 2.67-6.715-4.94-3.57h6.01504l2.13-6.785 2.135 6.785h6.015z"/><path d="m16.0151 14.1651 2.73 6.76-5.935-4.435-5.87504 4.395 2.67-6.715-4.94-3.57h6.01504l2.13-6.785 2.135 6.785h6.015z"/></g></svg>