<svg fill="none" height="48" viewBox="0 0 48 48" width="48" xmlns="http://www.w3.org/2000/svg"><path d="m24 6c-9.93 0-18 8.07-18 18 0 9.92 8.07 18 18 18 9.92 0 18-8.08 18-18 0-9.93-8.08-18-18-18zm15.95 17h-5.98c-.17-5.87-1.83-10.92-4.34-13.96 5.75 2.18 9.92 7.56 10.32 13.96zm-16.95-14.85v14.85h-6.97c.24-7.56 3.25-13.88 6.97-14.85zm0 16.85v14.85c-3.72-.98-6.73-7.3-6.97-14.85zm2 14.85v-14.85h6.97c-.24 7.56-3.25 13.88-6.97 14.85zm0-16.85v-14.85c3.72.98 6.73 7.3 6.97 14.85zm-6.64-13.96c-2.51 3.03-4.16 8.08-4.34 13.96h-5.97c.4-6.4 4.57-11.78 10.31-13.96zm-10.31 15.96h5.98c.17 5.87 1.83 10.92 4.34 13.96-5.75-2.18-9.92-7.56-10.32-13.96zm21.59 13.96c2.51-3.03 4.16-8.08 4.34-13.96h5.98c-.41 6.4-4.58 11.78-10.32 13.96z" fill="#000"/></svg>