<svg viewBox="0 0 128 128" xmlns="http://www.w3.org/2000/svg"><g fill="none" stroke="#000" stroke-width="2.03"><path d="m15.13 54.25 7.48 14.97-14.39 9.21.29.65-1.37.86-.5-.5-.94.65 12.95 24.25c.04.72.03.78-.58.94-.47.12-.88 0-1.3.22-.34.17-.74.13-1.15.22-.35.07-.53.41-.65.65-.17.34-.29.28-.29.86 0 .34.47.77.65 1.01.33.44.57.5 1.01.72.3.15.8-.22 1.08-.29.38-.09.74-.18 1.15-.29.38-.09.9 0 1.3 0 .56 0 1.11-.05 1.58-.29.41-.21.72-.31 1.15-.58.27-.16.65-.22.94-.36.33-.17.6-.4 1.01-.5.38-.1.75-.45 1.01-.58.38-.19.5-.4.94-.5.46-.11.78-.5 1.08-.65.29-.14.43-.43.72-.57.39-.19.54-.67.94-.86.4-.2.68-.37.94-.5.36-.18.51-.65.72-.86.25-.25.48-.68.72-1.01.22-.3.74-.51 1.01-.65.37-.19.67-.52 1.01-.79.36-.29.75-.39 1.08-.72.27-.27.57-.42.86-.72.17-.17.79-.28 1.08-.43.49-.25.84-.41 1.15-.72.07-.07.19-.05.29-.07.34-.34.55-.8.72-1.08.25-.41.56-.57.65-.94.09-.38.15-.56.43-.94.25-.34.74-.73 1.01-.94.46-.35.88-.62 1.37-.86.47-.23.74-.39 1.08-.65.32-.24.69.03 1.01-.29.31-.31.66-.47 1.08-.58.5-.13 1.08-.11 1.58-.22.49-.1 1.08-.59 1.44-.86.47-.35.67-.6 1.08-1.01.25-.25.87-.43 1.22-.5.74-.15.72-.3 1.22.07.46.35.48.35 1.08.5.58.15.84.33 1.37.43.25.05.14.88.14 1.08 0 .64.13.71.5 1.08.24.24.62.22 1.01.22s.74-.38 1.01-.58c.1-.07.19-.14.29-.22.55-.41.78-.68 1.3-.94.14-.07.29-.1.43-.14.17-.05.34-.1.5-.14.09-.03.19-.05.29-.07.69-.17.64-.13 1.08-.58s.94-.43 1.51-.43c1.26 0 .54-.1.79-.14.41 0 .76-.55.94-.72.28-.28.66-.44 1.01-.65s.64-.36 1.08-.36c.29 0 .83-.38 1.08-.5.34-.17.53-.63.65-.86.15-.3.55-.42.86-.58.58-.29 1.53-.38 2.16-.5.42-.08.88-.37 1.3-.58.1-.05.19-.1.29-.14.63-.31 1.11-.24 1.66-.65.36-.27.89-.52 1.3-.72.37-.18.9-.61 1.15-.86.31-.31.76-.68 1.22-.79.47-.12.96-.14 1.51-.14.45 0 .64.28.94.5.22.16.72.07 1.01.07.45 0 .8-.11 1.22 0 .48.12.9.29 1.51.29s1.17-.05 1.66-.14c.56-.11.86-.36 1.3-.58.51-.26.59-.43 1.22-.43.54 0 .82.1 1.3.22.56.14.8-.03 1.22.29.35.26.82.13 1.08 0 .28-.14.86-.07 1.15 0 .43.11.51.52 1.01.65.42.11.8.2 1.3.07.1-.02.19-.05.29-.07.49-.12.9-.29 1.44-.29.59 0 .43-.21.72.07.51 0 1.12.49 1.58.72.41.21.85.43 1.37.43.36 0 .97.12 1.3.29.38.19.95.11 1.37.22.52.13 1.15.13 1.66 0s.96-.31 1.44-.5c.28-.11.66-.13 1.01-.22.43-.11.72.14 1.01.22.41.1.76.14 1.22.14h1.3c.48 0 .61.12.94.29.36.18.76.41 1.15.5.39.1.75.4 1.15.5.43.11.69.22 1.15.22h1.3c.49 0 .99.11 1.44.29.36.15.84.19 1.22.29.31.08.6.14 1.01.14.49 0 .74.06 1.08.14.25.06.6 0 .86 0l-.43-18.06-11.94-.07.07-15.18c.51.13-.9.56-1.37.79-.26.13-.55.48-.79.72-.33.33-.8.53-1.15.79-.26.2-.56.32-.72.65-.09.17-.68.45-.94.57-.25.13-.76.23-1.01.36-.48.24-.88.15-1.01.65-.1.39-.3.54-.65.72-.43.21-.46.39-.72.65-.31.31-.39.55-.79.65-.33.08-.71.34-1.15.43-.75.15-.69 0-.22-.36.42-.32.69-.61.94-.86.28-.28.39-.47.72-.72.26-.19.39-.84.58-1.08.24-.32.25-.85.43-1.22.17-.35.12-.76.22-1.15.09-.38.29-.7.29-1.15s.22-.78.22-1.22c0-.5.1-.65-.43-.65-.43 0-.66.38-.79.65-.11.21-.47.47-.65.65-.32.32-.42.56-.65.79s-.44.6-.58.86c-.15.31-.29.42-.29.86 0 .29-.37.8-.5.94-.29.29-.5.72-.72 1.01-.3.39-.74.62-.94 1.01-.22.44-.23.73-.58 1.08-.27.27-.65.11-.86 0-.26-.13-.14-.79-.14-1.08 0-.48.19-.54.29-.94.1-.39.38-.67.57-.94.19-.25.45-.44.72-.58.05-.02.27-.97.29-1.01.12-.24.55-.49.72-.72.06-.08 0-.47 0-.58l-.29-32.09c.28-.37-.99-.31-1.08-.29-.31.08-.67.33-.79.36-.11.03-.54-.43-.86-.43-.42 0-.48.03-.79-.29-.19-.19-.74.45-.79.5-.32.32-.52.61-.65.94-.12.29-.42.56-.58.86-.16.33-.4.54-.5.94-.1.39-.06.66-.14 1.01-.1.41-.22.5-.43.79-.21.28-.28.48-.43.79-.21.42-.56.76-.79 1.22-.17.34-.32.51-.5.86-.15.3-.4.68-.65 1.01-.3.4-.44.74-.65 1.15-.17.34-.4.54-.65.79-.27.27-.42.53-.79.72-.25.13-.55.47-.79.65-.39.29-.74.62-1.15.72-.52.13-.74.35-1.3.22-.3-.07-.56-.48-.65-.65-.13-.27 0-1 0-1.3s-.93.5-.94.5c-.26.26-.3.73-.58 1.01-.19.19-.86.14-1.15.14-.61 0-.63-.27-.94-.58-.27.09-.1-.1-.14-.14-.25-.25-1.2-.29-1.58-.29s-.75.35-1.22.43c-.39.07-.63-.37-.72-.72-.05-.2-.49-.6-.65-.72-.24-.18-.83.4-1.01.43-.4.08-.54-.09-.94-.29-.51-.25-.74.15-1.15.36-.35.18-.7.29-1.15.29-.51 0-.67-.31-1.15-.43s-.98.31-1.37.5c-.41.2-.69.42-1.15.65-.43.21-.72.5-1.15.72-.26.13-.14.79-.14 1.08 0 .52-.17.71-.36 1.08-.09.18.47.47.58.58.25.25.39.32.5.79.1.4.1.84 0 1.22-.09.37-.33.66-.5 1.01-.2.39-.43.51-.65.79-.2.27-.23.49-.58.58-.45.11-.58.07-.79-.22-.26-.35-.25-.49-.36-.94-.1-.41-.72-.39-.72.07 0 .42-.21.78-.29 1.15 0 .04-.34.4-.36.43-.09.46-.26.83-.36 1.22-.06.26-.43.67-.58.86-.07.09-.82.24-1.01.29-.33.08-.79.65-.86.94-.1.4-.15.59-.36.79-.15.15-.2.76-.29.94-.21.42-.42.67-.5 1.01-.09.38-.26.47-.5.72-.24.24-.22.43-.22.86 0 .12-.83.64-.94.72-.33.25-.66.44-1.01.65-.41.25-.85.34-1.22.43-.44.11-.88.29-1.37.29s-.35.32-.43.65c-.09.35-.23.49-.58.58-.37.09-.66.14-1.08.14s-.44.36-.94.36c-.31 0-.58-.29-.72-.43-.28-.28-.26.14-.58.22-.16.04-.41 0-.58 0l-27.92-.5.07.86-1.11.41-.48.16-4.03 2.09.21.2z"/><path d="m110.04 51.41c.11-.08.15-.15 0-.19z" opacity=".5"/><path d="m37.17 97.51-2.49-4.73-1.19.8-4.93-8.91 1.59-.56-7.53-14.89-14.39 9.21.29.65-1.37.86-.5-.5-.94.64 12.95 24.25c.04.72.04.78-.58.93-.47.12-.88 0-1.3.22-.34.17-.73.13-1.15.22-.35.07-.53.41-.65.65-.17.34-.29.28-.29.86 0 .34.47.77.65 1.01.33.44.57.51 1.01.72.3.15.8-.22 1.08-.29.38-.09.73-.18 1.15-.28.38-.09.9 0 1.3 0 .56 0 1.11-.05 1.59-.29.41-.21.71-.31 1.15-.58.27-.16.66-.22.94-.36.33-.17.6-.4 1.01-.5.38-.1.75-.44 1.01-.58.38-.19.5-.4.93-.51.46-.11.78-.5 1.08-.65.29-.14.44-.43.72-.58.39-.19.54-.67.93-.86.4-.2.68-.37.94-.5.36-.18.5-.65.72-.86.25-.25.48-.69.72-1.01.22-.3.74-.51 1.01-.64.37-.19.67-.53 1.01-.8.36-.29.76-.39 1.08-.72.27-.27.57-.43.86-.72.17-.17.79-.29 1.08-.43.2-.1.36-.18.52-.27z"/><path d="m77.16 80.79-1.83-2.49-.08-3.82h-31.76l.65 6.84c.03.11.05.21.08.32.05.21.04.43 0 .63s-.1.37-.16.48-.22.27-.39.41c-.18.15-.37.29-.48.37-.13.09-.21.18-.25.26s-.05.15-.03.23c.04.15.19.29.36.47.2.2.33.36.4.54.03.09.05.19.05.29s-.02.22-.05.36c-.02.06-.02.12 0 .16s.05.08.09.11c.08.05.21.08.35.09.28.02.6-.03.76-.03.1 0 .16.05.2.13.03.08.04.19.04.3 0 .22-.07.47-.08.52-.03.11-.07.2-.11.27-.05.07-.1.13-.16.18-.12.09-.28.14-.44.18-.09.02-.16.09-.21.17s-.07.19-.09.31c-.03.23-.02.48-.02.64 0 .07.03.15.09.24.05.09.13.18.2.27.15.18.31.37.35.53.1.39.06.84.15 1.23.2-.11.41-.21.65-.27.5-.13 1.08-.11 1.59-.22.49-.1 1.08-.59 1.44-.86.47-.35.67-.59 1.08-1.01.25-.25.87-.43 1.22-.5.74-.15.72-.31 1.22.07.46.35.48.36 1.08.51.58.15.84.33 1.36.43.25.05.15.88.15 1.08 0 .64.13.71.5 1.08.24.24.62.21 1.01.21s.74-.38 1.01-.58c.1-.07.19-.14.29-.22.55-.41.79-.68 1.3-.93.14-.07.29-.1.43-.15.17-.05.33-.09.5-.14.09-.03.19-.04.29-.07.7-.17.64-.14 1.08-.58.43-.43.94-.43 1.51-.43 1.26 0 .54-.1.8-.14.41 0 .76-.55.93-.72.28-.28.66-.44 1.01-.64.35-.21.64-.36 1.08-.36.29 0 .83-.38 1.08-.5.34-.17.53-.63.65-.86.15-.3.55-.42.86-.58.58-.29 1.53-.38 2.15-.51.42-.08.88-.37 1.3-.58.1-.05.19-.09.29-.14.63-.31 1.11-.24 1.65-.65.36-.27.89-.52 1.3-.72.37-.18.89-.61 1.15-.86.12-.12.27-.25.43-.37s0 0 0 0z"/><path d="m75.17 74.49-.08-34.53h12.17l-.26-9.3c-.25.13-.55.46-.78.64-.39.29-.74.61-1.15.72-.52.13-.74.35-1.3.22-.3-.07-.56-.47-.65-.64-.13-.27 0-1 0-1.3s-.92.49-.93.5c-.26.26-.29.73-.58 1.01-.19.19-.86.15-1.15.15-.61 0-.63-.27-.93-.58-.27.09-.1-.1-.15-.15-.25-.25-1.19-.28-1.58-.28s-.75.35-1.22.43c-.39.07-.63-.37-.72-.72-.05-.2-.49-.6-.65-.72-.24-.18-.83.4-1.01.43-.4.08-.54-.09-.93-.28-.51-.25-.74.15-1.15.36-.35.18-.69.29-1.15.29-.51 0-.68-.31-1.15-.43-.49-.12-.98.31-1.36.5-.41.2-.69.42-1.15.65-.43.21-.72.51-1.15.72-.26.13-.14.79-.14 1.08 0 .52-.18.7-.36 1.08-.09.18.47.47.58.58.25.25.38.32.5.79.1.4.1.84 0 1.22-.09.37-.33.66-.5 1.01-.2.39-.43.5-.65.79-.2.27-.23.49-.58.58-.45.11-.58.07-.79-.22-.26-.35-.25-.5-.36-.94-.1-.41-.72-.39-.72.07 0 .42-.21.78-.28 1.15 0 .04-.34.41-.36.43-.09.46-.26.83-.36 1.22-.06.26-.43.67-.58.86-.07.09-.82.24-1.01.29-.33.08-.8.65-.86.93-.1.4-.15.58-.36.79-.15.15-.2.76-.29.94-.21.42-.41.67-.5 1.01-.09.38-.26.48-.51.72-.24.24-.22.43-.22.86 0 .12-.83.64-.94.72-.33.25-.66.44-1.01.65-.41.25-.85.34-1.22.43-.44.11-.88.28-1.36.28s-.35.32-.43.65c-.09.35-.23.49-.58.58-.37.09-.66.14-1.08.14s-.45.36-.94.36c-.31 0-.57-.29-.72-.43-.28-.28-.27.14-.58.22-.16.04-.4 0-.57 0l-7.14-.13 2.26 23.61h31.68s0 0 0 0z"/><path d="m94.38 19.05c-.24.1-.56.47-.6.51-.32.32-.52.61-.65.94-.12.29-.42.56-.58.86-.16.33-.41.53-.51.93-.1.39-.06.66-.14 1.01-.1.41-.22.5-.43.79-.21.28-.28.49-.43.8-.21.42-.56.76-.79 1.22-.17.34-.33.51-.51.86-.15.3-.39.68-.64 1.01-.3.4-.44.73-.65 1.15-.17.34-.4.54-.65.79-.27.27-.42.54-.79.72 0 0-.01 0-.02.01l.26 9.3h-12.17l.08 34.53h.08l.08 3.82 1.83 2.49c.24-.19.51-.35.79-.42.47-.12.96-.14 1.51-.14.45 0 .64.28.93.5.22.16.73.07 1.01.07.45 0 .79-.11 1.22 0 .48.12.89.29 1.51.29s1.17-.05 1.65-.15c.56-.11.86-.36 1.3-.57.51-.26.59-.43 1.22-.43.54 0 .82.1 1.3.22.56.14.8-.03 1.22.29.35.26.82.13 1.08 0 .28-.14.86-.07 1.15 0 .43.11.51.52 1.01.65.42.11.8.19 1.29.07.1-.02.19-.04.29-.07.49-.12.9-.29 1.44-.29.59 0 .44-.21.72.07.51 0 1.12.48 1.58.72.41.21.86.43 1.37.43.36 0 .96.13 1.29.29.38.19.96.11 1.37.22.52.13 1.15.13 1.65 0 .51-.13.96-.31 1.44-.51.28-.11.66-.13 1.01-.22.43-.11.72.14 1.01.22.41.1.76.14 1.22.14h1.3c.48 0 .61.13.94.29.36.18.76.41 1.15.51s.75.4 1.15.5c.43.11.69.22 1.15.22h1.3c.49 0 .99.11 1.44.29.36.15.84.19 1.22.28.31.08.59.15 1.01.15.49 0 .74.06 1.08.14.25.06.6 0 .86 0l-.43-18.06-11.95-.07.07-15c-.26.19-1.04.44-1.37.6-.26.13-.55.48-.79.72-.33.33-.8.53-1.15.79-.26.2-.56.32-.72.65-.09.17-.68.45-.93.58s-.76.23-1.01.36c-.48.24-.89.15-1.01.65-.1.39-.29.55-.64.72-.43.21-.46.39-.72.65-.31.31-.39.55-.79.65-.33.08-.71.34-1.15.43-.75.15-.69 0-.22-.36.42-.32.69-.62.94-.86.28-.28.39-.47.72-.72.26-.19.4-.84.58-1.08.24-.32.25-.85.43-1.22.17-.35.12-.76.22-1.15.09-.38.28-.7.28-1.15s.22-.78.22-1.22c0-.5.1-.65-.43-.65-.43 0-.66.38-.79.65-.11.21-.48.47-.65.65-.32.32-.42.56-.65.79s-.44.6-.58.86c-.15.31-.29.42-.29.86 0 .29-.37.8-.5.93-.29.29-.5.72-.72 1.01-.3.39-.74.62-.93 1.01-.22.44-.23.73-.58 1.08-.27.27-.65.11-.86 0-.26-.13-.15-.79-.15-1.08 0-.48.19-.54.29-.94.1-.39.37-.67.58-.93.19-.25.46-.45.72-.58.05-.02.26-.97.28-1.01.12-.24.55-.48.72-.72.06-.08 0-.47 0-.58l-.29-32.09c.28-.37-.98-.31-1.08-.29-.31.08-.68.33-.8.36-.11.03-.54-.43-.86-.43-.42 0-.48.03-.79-.28-.05-.05-.11-.05-.19-.01s0 0 0 0z"/><path d="m12.54 75.62 6.39 12.38 3.56-2.57 1.12 2.04 5-2.83"/><path d="m14.65 96.82 5.73-3.88 3.29 5.86 2.11-1.65-.07-1.78 1.84-1.25 1.32.46 3.69-2.57"/><path d="m24.46 98.2 3.42 6.52"/><path d="m29.99 83.65h1.18c.31 0 .64.07.99.07.25 0 .72-.16.92-.26.39-.19.72-.39 1.12-.59.33-.17.53-.43.86-.59.43-.21.7-.49 1.12-.59.36-.09.52-.33.99-.33.39 0 .6-.15.92-.39.34-.25.42-.42.66-.66.27-.27.41-.59.66-.92.3-.4.45-.85.79-1.18.35-.35.5-.72.86-.99.31-.23.65-.37 1.05-.53.34-.14.73-.4.99-.53.18-.09.39-.16.53-.26"/><path d="m26.1 76.08 5-3.23v-.66l.72-.39.66.33 10.14-6.91"/><path d="m61 41.97-3.69 29.5 5.07.13 2.77-12.38.13-4.54.46-4.41-5.79.07"/><path d="m59.36 54.68h6.06"/><path d="m58.76 60.08h6.26"/><path d="m64.03 64.89h11.19"/><path d="m65.54 51.52 9.48.46"/><path d="m42.43 62.72 15.93.39"/><path d="m58.83 71.6-.33 2.9"/><path d="m86.93 40 .38 40.26"/><path d="m75.1 63.93 23.74.34.13 17.06"/><path d="m92.98 64.13v16.26"/><path d="m87.18 71.62h-4.92c0 .27-.15.4-.2.61-.06.24.22.2.4.2.26 0 .39.06.5.26.12.24.1.56.1.83 0 .29-.1.49-.17.76-.05.2-.11.37-.23.5-.22.22-.29.08-.36.4-.05.21-.05.31 0 .53.04.17 0 .42 0 .6 0 .21.12.45.23.59.11.15.18.42.26.6.1.2.25.35.33.56.08.2.07.43.07.66v.7c0 .17-.12.47-.2.63-.07.15-.1.38-.13.5-.03.11-.03.21-.03.33"/><path d="m86.9 49.56h11.48"/><path d="m98.8 66.46 11.69-.07"/><path d="m62.45 39.89h12.64"/></g></svg>