<svg fill="none" height="48" viewBox="0 0 48 48" width="48" xmlns="http://www.w3.org/2000/svg"><g fill="#000"><path d="m24 34c.8284 0 1.5-.6716 1.5-1.5s-.6716-1.5-1.5-1.5-1.5.6716-1.5 1.5.6716 1.5 1.5 1.5z"/><path d="m24 6c-9.93 0-18 8.07-18 18 0 9.92 8.07 18 18 18 9.92 0 18-8.08 18-18 0-9.93-8.08-18-18-18zm0 34c-8.82 0-16-7.18-16-16s7.18-16 16-16 16 7.18 16 16-7.18 16-16 16z"/><path d="m24 14c-2.76 0-5 2.24-5 5h2c0-1.65 1.35-3 3-3s3 1.35 3 3c0 1.5-.64 1.98-1.6 2.7-1.07.8-2.4 1.8-2.4 4.3v2h2v-2c0-1.5.64-1.98 1.6-2.7 1.07-.8 2.4-1.8 2.4-4.3 0-2.76-2.24-5-5-5z"/></g></svg>