<svg fill="none" height="100" viewBox="0 0 94 100" width="94" xmlns="http://www.w3.org/2000/svg" xmlns:xlink="http://www.w3.org/1999/xlink"><clipPath id="a"><path d="m0 0h93.41v99.97h-93.41z"/></clipPath><g clip-path="url(#a)"><path d="m86.59 50.37c-3.1-2.4 1.2-11.2 1.9-16.6 0 0-12.1 4.3-13.1 1.9l-3.1-5.9-11.2 12.1c-1.2.2-1.7 0-1.9-1.2l5.2-25.4-8.1 4.5c-.7.2-1.4 0-1.7-.7l-7.8-15.7-8.1 16.4c-.7.5-1.2.7-1.7.2l-7.8-4.3 4.7 25.2c-.5.9-1.2 1.2-2.4.7l-10.7-12.1c-1.4 2.1-2.4 5.9-4.3 6.6s-8.09999-1.4-12.09999-2.4c1.4 5 5.69999 13.5 3.1 16.4l-4.5 1.4 20.89999 18.5c1.7 4.7-.5 6.2-1.9 8.5l22.8-2.8-.5 22.8h4.7l-.9-22.8 22.8 2.6c-1.4-3.1-2.6-4.5-1.4-9.3l20.9-17.3z" stroke="#000" stroke-miterlimit="10" stroke-width="3"/></g></svg>