<svg viewBox="0 0 51.9999883 57" xmlns="http://www.w3.org/2000/svg"><path d="m25.9999883 57h1.0338001l-.3318996-13.3139992.9490986-.7929993c4.2906017.4967995 8.1331005.9456978 12.4176998 1.4536972l-1.0854988-3.6394997c-.1749992-.6406975.0719986-1.3372002.5583992-1.7263985l12.4584007-10.2954006-2.5821991-1.2362995c-1.1315002-.4127007-.8127022-1.0585003-.4092026-2.6198006l1.8983002-7.0366993-7.2296982 1.546999c-.7094994.1096001-1.1776009-.3479996-1.2807999-.7805996l-.9361992-3.3107004-5.7205009 6.5194006c-.8127022 1.0443001-2.4584007 1.0443001-1.9443016-1.3710995l2.4438019-13.2058005-3.2768021 1.7298799c-.9231987.5203304-1.8391991.60641-2.3607979-.3266497l-4.6016006-8.5940303-4.6037998 8.5923405c-.5123005.9328299-1.4356003.84867-2.3532009.3283396l-3.2768002-1.7298799 2.4456005 13.204c.5069008 2.4172001-1.1389999 2.4172001-1.9515991 1.3729l-5.7206011-6.5194006-.9305 3.3107004c-.1107693.4326-.5713396.8901997-1.2809601.782299l-7.2352296-1.5486984 1.8981401 7.0348988c.4091499 1.5611.7279902 2.2089005-.4036601 2.6235008l-2.587378 1.2343998 12.4581878 10.2936993c.4938002.3892021.7463007 1.0890999.5713005 1.7280998l-1.0927 3.6394997c4.2845993-.5079994 8.1271-.9550972 12.4174995-1.4536972l.9491005.7929993-.3299999 13.3139992h1.0265999z" fill-rule="evenodd"/></svg>