<svg fill="none" height="48" viewBox="0 0 48 48" width="48" xmlns="http://www.w3.org/2000/svg"><path d="m38 10c-1.8845 0-3.4581 1.3136-3.8798 3.0701-3.9983.6048-7.1202 5.2737-7.1202 10.9299h-2v-14.14197c1.7205-.4472 3-1.99969 3-3.85803 0-2.20557-1.7939-4-4-4-2.2056 0-4 1.79443-4 4 0 1.85828 1.2797 3.41071 3 3.85797v14.14203h-2c0-5.6562-3.1219-10.3251-7.1202-10.9299-.4219-1.7565-1.9958-3.0701-3.8798-3.0701-2.20557 0-4 1.7944-4 4s1.79443 4 4 4c1.823 0 3.348-1.2333 3.8281-2.904 2.917.6083 5.1719 4.364 5.1719 8.904h-3v22h2v-20h12v20h2v-22h-3c0-4.5399 2.2548-8.2956 5.1719-8.904.48 1.6707 2.0047 2.904 3.8281 2.904 2.2061 0 4-1.7944 4-4s-1.7939-4-4-4zm-16-4c0-1.10303.897-2 2-2 1.1025 0 2 .89697 2 2s-.8975 2-2 2c-1.103 0-2-.89697-2-2zm-12 10c-1.10303 0-2-.897-2-2s.89697-2 2-2c1.103 0 2 .897 2 2s-.897 2-2 2zm28 0c-1.1025 0-2-.897-2-2s.8975-2 2-2 2 .897 2 2-.8975 2-2 2z" fill="#000"/></svg>