<svg fill="none" height="48" viewBox="0 0 48 48" width="48" xmlns="http://www.w3.org/2000/svg"><g fill="#000"><path d="m25 10.05v-4.05h5v-2h-12v2h5v4.05c-8.36.52-15 7.47-15 15.95 0 8.82 7.18 16 16 16s16-7.18 16-16c0-8.48-6.64-15.43-15-15.95zm-1 29.95c-7.72 0-14-6.28-14-14s6.28-14 14-14 14 6.28 14 14-6.28 14-14 14z"/><path d="m35.7087 8.29497-1.4142 1.4142 6.0033 6.00323 1.4142-1.4142z"/><path d="m12.298 8.28774-6.00331 6.00326 1.4142 1.4142 6.00331-6.00326z"/><path d="m31.29 17.29-8 8c-.18.18-.29.43-.29.71 0 .55.45 1 1 1 .28 0 .53-.11.71-.29l8-8z"/></g></svg>