<svg fill="none" height="48" viewBox="0 0 48 48" width="48" xmlns="http://www.w3.org/2000/svg"><path d="m41.92 10h-35.92c-1.69995 0-3 1.3-3 3v19.62c0 1.7 1.30005 3 3 3h14.88v1.85c0 1.07-.81 1.88-1.87 1.88h-.96v1.91h11.82v-1.91h-.96c-1.06 0-1.87-.81-1.87-1.88v-1.85h14.88c1.7 0 3-1.3 3-3v-19.62c0-1.7-1.3-3-3-3zm-19.62 29.35c.32-.57.5-1.23.5-1.88v-1.85h2.33v1.85c0 .65.17 1.31.49 1.88zm20.62-6.73c0 .6-.4 1-1 1h-35.92c-.59998 0-1-.4-1-1v-19.62c0-.6.40002-1 1-1h35.92c.6 0 1 .4 1 1z" fill="#000"/></svg>