<svg fill="none" height="48" viewBox="0 0 48 48" width="48" xmlns="http://www.w3.org/2000/svg"><g fill="#000"><path d="m24 6c-9.9 0-18 8.1-18 18s8.1 18 18 18 18-8.1 18-18-8.1-18-18-18zm-9 31.2v-1.2c0-3.2 4.2-6 9-6s9 2.8 9 6v1.2c-2.5 1.8-5.7 2.8-9 2.8s-6.5-1-9-2.8zm19.9-1.6c-.2-4.1-5.1-7.6-10.9-7.6s-10.7 3.4-10.9 7.6c-3.1-2.9-5.1-7-5.1-11.6 0-8.8 7.2-16 16-16s16 7.2 16 16c0 4.6-2 8.7-5.1 11.6z"/><path d="m24 12c-3.9 0-7 3.1-7 7s3.1 7 7 7 7-3.1 7-7-3.1-7-7-7zm0 12c-2.8 0-5-2.2-5-5s2.2-5 5-5 5 2.2 5 5-2.2 5-5 5z"/></g></svg>