<svg fill="none" height="48" viewBox="0 0 48 48" width="48" xmlns="http://www.w3.org/2000/svg"><g fill="#000"><path d="m24 18c3.9 0 7-3.1 7-7s-3.1-7-7-7-7 3.1-7 7 3.1 7 7 7zm0-12c2.8 0 5 2.2 5 5s-2.2 5-5 5-5-2.2-5-5 2.2-5 5-5z"/><path d="m14 32c3.9 0 7-3.1 7-7s-3.1-7-7-7-7 3.1-7 7 3.1 7 7 7zm0-12c2.8 0 5 2.2 5 5s-2.2 5-5 5-5-2.2-5-5 2.2-5 5-5z"/><path d="m34 34c-4.4 0-8.3 2-10 4.8-1.7-2.8-5.6-4.8-10-4.8-5.9 0-11 3.7-11 8v2h2v-2c0-3.2 4.2-6 9-6s9 2.8 9 6v2h2v-2c0-3.2 4.2-6 9-6s9 2.8 9 6v2h2v-2c0-4.3-5.1-8-11-8z"/><path d="m27 25c0 3.9 3.1 7 7 7s7-3.1 7-7-3.1-7-7-7-7 3.1-7 7zm7-5c2.8 0 5 2.2 5 5s-2.2 5-5 5-5-2.2-5-5 2.2-5 5-5z"/></g></svg>