<svg fill="none" height="48" viewBox="0 0 48 48" width="48" xmlns="http://www.w3.org/2000/svg"><g fill="#000"><path d="m4.20001 16.2 1.41 1.41c4.91999-4.91 11.44999-7.61 18.38999-7.61 6.95 0 13.47 2.7 18.38 7.62l1.41-1.41c-10.91-10.93-28.67-10.93-39.58999-.01z"/><path d="m9.86002 21.86 1.40998 1.41c3.4-3.4 7.92-5.27 12.73-5.27s9.33 1.87 12.73 5.27l1.41-1.41c-3.78-3.78-8.8-5.86-14.14-5.86s-10.36 2.08-14.13998 5.86z"/><path d="m15.51 27.51 1.41 1.41c3.9-3.9 10.24-3.9 14.14 0l1.41-1.41c-4.66-4.68-12.28-4.68-16.96 0z"/><path d="m24 32c-2.21 0-4 1.79-4 4s1.79 4 4 4 4-1.79 4-4-1.79-4-4-4zm0 6c-1.1 0-2-.9-2-2s.9-2 2-2 2 .9 2 2-.9 2-2 2z"/></g></svg>