<svg fill="none" height="48" viewBox="0 0 48 48" width="48" xmlns="http://www.w3.org/2000/svg"><path d="m42.49 35.07-16.95-16.95c.3-1.02.46-2.07.46-3.12 0-6.07-4.93-11-11-11h-2.43l-1.95 2.03 6.44 6.44c1.26 1.26 1.26 3.32 0 4.59-1.26 1.26-3.32 1.26-4.59 0l-6.47-6.47-2 2v2.41c0 6.06 4.93 11 11 11 1.05 0 2.1-.16 3.12-.46l16.95 16.95c1.02 1.02 2.36 1.53 3.71 1.53 1.34 0 2.69-.51 3.71-1.53 2.04-2.05 2.04-5.37 0-7.42zm-1.42 6c-1.27 1.26-3.32 1.26-4.59 0l-17.83-17.83-.6.22c-.99.36-2.02.54-3.05.54-4.96 0-9-4.04-9-9v-1.58l5.06 5.06c2.04 2.04 5.37 2.04 7.41 0s2.04-5.37 0-7.41l-5.06-5.06 1.59-.01c4.96 0 9 4.04 9 9 0 1.03-.18 2.06-.54 3.05l-.22.6 17.83 17.83c1.27 1.27 1.27 3.33 0 4.59z" fill="#000"/></svg>